<svg xmlns="http://www.w3.org/2000/svg" viewBox="0 0 501 612">
  <title>RA_JEB_Lined_positve</title>
  <g>
    <g>
      <path d="M341.42969,380.56738c-1.38379-1.42969-2.8623-2.84863-4.39648-4.21777l-1.998,2.23828c1.48047,1.32031,2.90625,2.68848,4.23828,4.06543Z"/>
      <path d="M241.0625,350.26074l-.16895-2.99609c-2.01611.11426-4.043.2666-6.02441.45313l.28125,2.98633C237.09473,350.52148,239.084,350.37207,241.0625,350.26074Z"/>
      <path d="M258.83984,350.25586c1.97168.10938,3.96.25684,5.91113.43945l.2793-2.98633c-1.98828-.18652-4.01465-.33691-6.02441-.44922Z"/>
      <path d="M229.25977,351.374l-.39551-2.97461c-1.98926.26465-3.99951.57227-5.9751.916l.51367,2.95508C225.33887,351.93457,227.30957,351.63281,229.25977,351.374Z"/>
      <path d="M270.64063,351.36035c1.9668.25977,3.93652.56055,5.85742.89258l.51172-2.95508c-1.959-.33984-3.96973-.64648-5.97461-.91211Z"/>
      <path d="M217.5874,353.40039l-.63184-2.93359c-1.96631.42383-3.9458.89355-5.88379,1.39551l.752,2.9043C213.72217,354.27441,215.66162,353.81543,217.5874,353.40039Z"/>
      <path d="M322.332,365.60645c-1.707-1.02441-3.48437-2.02637-5.28418-2.97754l-1.40234,2.65234c1.752.92578,3.48145,1.90039,5.1416,2.89746Z"/>
      <path d="M288.832,351.83789c-1.92187-.498-3.90137-.96582-5.88574-1.3916l-.62891,2.93359c1.94238.417,3.88184.875,5.7627,1.3623Z"/>
      <path d="M332.3584,372.458c-1.56934-1.22168-3.22168-2.42578-4.91211-3.5791l-1.69141,2.47852c1.63965,1.11816,3.24121,2.28418,4.76172,3.46777Z"/>
      <path d="M300.4043,355.36621c-1.8877-.668-3.82129-1.30371-5.748-1.89062l-.875,2.86914c1.88477.5752,3.77734,1.19727,5.623,1.84961Z"/>
      <path d="M311.61523,359.93359c-1.81348-.8418-3.68262-1.65527-5.55273-2.417l-1.13086,2.7793c1.82617.74316,3.65039,1.53711,5.4209,2.3584Z"/>
      <path d="M177.58252,365.6582l1.5459,2.57031c1.6626-.999,3.39209-1.97559,5.14014-2.90234l-1.4043-2.65039C181.06836,363.627,179.291,364.62988,177.58252,365.6582Z"/>
      <path d="M167.562,372.51953l1.84473,2.36523c1.52344-1.1875,3.124-2.35645,4.75732-3.47266l-1.69336-2.47656C170.78613,370.08691,169.13428,371.293,167.562,372.51953Z"/>
      <path d="M194.97656,360.333l-1.13281-2.77734c-1.87891.76563-3.74707,1.58105-5.55225,2.42188l1.2666,2.71875C191.31934,361.876,193.14258,361.08105,194.97656,360.333Z"/>
      <path d="M158.49854,380.64063l2.1582,2.084c1.335-1.38281,2.75928-2.752,4.2334-4.07031l-2-2.23633C161.36182,377.78516,159.88428,379.20605,158.49854,380.64063Z"/>
      <path d="M206.126,356.374l-.87793-2.86914c-1.94385.59473-3.877,1.23242-5.74609,1.89551l1.00293,2.82813C202.333,357.5791,204.22412,356.95605,206.126,356.374Z"/>
    </g>
    <g>
      <path d="M223.748,604.18164q1.50073.12451,3.00635.23535l.21973-2.99219q-1.49121-.10986-2.97705-.2334Z"/>
      <path d="M11.72021,442.61816l-2.95508.51758c.34521,1.97168.73438,3.959,1.15723,5.90527l2.93164-.63672C12.43994,446.49707,12.05859,444.55078,11.72021,442.61816Z"/>
      <path d="M30.438,498.90234c1.05322,1.68848,2.1543,3.38574,3.27148,5.04492l2.48828-1.67578c-1.09766-1.62988-2.17969-3.29785-3.21484-4.957Z"/>
      <path d="M211.82617,602.96q2.96411.36182,5.95361.668l.30566-2.98437q-2.95972-.30322-5.896-.66211Z"/>
      <path d="M44.50928,518.376c1.25781,1.52148,2.57129,3.05859,3.90332,4.56934l2.25-1.98437c-1.311-1.4873-2.60352-3-3.84082-4.49707Z"/>
      <path d="M199.96338,601.28418q2.948.47314,5.92334.89551l.41992-2.9707q-2.9458-.416-5.8667-.8877Z"/>
      <path d="M37.15088,508.875c1.16406,1.61035,2.37646,3.22852,3.603,4.81152l2.37109-1.83789c-1.20605-1.55664-2.39844-3.14844-3.54346-4.73145Z"/>
      <path d="M52.45459,527.38965c1.35352,1.44336,2.75781,2.89648,4.17383,4.31934l2.126-2.11719c-1.395-1.40039-2.77783-2.832-4.11133-4.25488Z"/>
      <path d="M188.17188,599.14453q2.92749.5918,5.88525,1.127l.53516-2.95117q-2.92749-.53174-5.82568-1.11719Z"/>
      <path d="M14.22021,454.13379l-2.90332.75586c.50293,1.93066,1.05127,3.87793,1.63037,5.78809l2.87109-.87109C15.25049,457.93555,14.71289,456.02637,14.22021,454.13379Z"/>
      <path d="M17.64209,465.417l-2.834.98438c.65576,1.8877,1.35791,3.78809,2.08691,5.64844l2.793-1.09375C18.97363,469.13184,18.28516,467.26758,17.64209,465.417Z"/>
      <path d="M79.24512,551.4082c1.5708,1.19043,3.19629,2.38867,4.83154,3.56055l1.748-2.4375c-1.61377-1.15723-3.21777-2.33887-4.76807-3.51367Z"/>
      <path d="M153.44287,589.91113q2.83374.94482,5.70557,1.835l.88867-2.86523q-2.84106-.88184-5.646-1.81543Z"/>
      <path d="M99.08887,564.89258c1.69434,1.03125,3.43115,2.06055,5.16162,3.05664l1.49707-2.59961c-1.70947-.98437-3.4248-2-5.09814-3.01953Z"/>
      <path d="M176.47461,596.53711q2.90186.709,5.83545,1.36133l.65234-2.92773q-2.90405-.64746-5.77686-1.34766Z"/>
      <path d="M69.87354,543.90918c1.51563,1.28223,3.0752,2.56543,4.63574,3.81348l1.874-2.3418c-1.53906-1.23242-3.07764-2.498-4.57227-3.7627Z"/>
      <path d="M120.144,576.37207c1.7666.86035,3.59131,1.72168,5.42285,2.56152l1.25-2.72656c-1.81055-.83008-3.61377-1.68262-5.35937-2.53223Z"/>
      <path d="M109.48242,570.88086c1.73828.94727,3.52148,1.89258,5.29932,2.80859l1.374-2.668c-1.75732-.9043-3.51953-1.83789-5.2373-2.77539Z"/>
      <path d="M142.15137,585.88379q2.792,1.06494,5.62451,2.0752l1.00781-2.82617q-2.80151-.999-5.563-2.05176Z"/>
      <path d="M131.043,581.37109c1.79639.77734,3.65723,1.55664,5.53027,2.31738l1.12891-2.7793c-1.85254-.752-3.69189-1.52344-5.46777-2.292Z"/>
      <path d="M60.92676,535.90137c1.43506,1.35938,2.9209,2.72852,4.417,4.06738l2.001-2.23633c-1.4751-1.31934-2.93994-2.668-4.35449-4.00879Z"/>
      <path d="M88.99707,558.40234c1.63867,1.11328,3.32275,2.22656,5.00635,3.30859l1.62207-2.52344c-1.66211-1.06836-3.32471-2.167-4.94189-3.26562Z"/>
      <path d="M19.2002,477.61914c.80273,1.83691,1.64941,3.67969,2.5166,5.47754l2.70215-1.30273c-.85107-1.76465-1.68213-3.57324-2.46973-5.376Z"/>
      <path d="M24.437,488.47949c.93311,1.76465,1.91113,3.53613,2.90771,5.26563l2.59961-1.498c-.97852-1.69824-1.93945-3.4375-2.85547-5.16992Z"/>
      <path d="M164.89111,593.46191q2.87109.82617,5.77588,1.59766l.77051-2.90039q-2.87549-.76318-5.71729-1.58008Z"/>
      <path d="M10.4624,433.80859l-2.98145.332q.16772,1.50732.3667,3.00684l2.97363-.39453Q10.62646,435.28369,10.4624,433.80859Z"/>
    </g>
    <g>
      <path d="M263.66992,233.9082q1.49414.06372,2.9834.13965l.1543-2.99609q-1.50293-.0769-3.01074-.14062Z"/>
      <path d="M284.74023,235.50488q3.01465.33105,6.00586.71875l.38477-2.97559q-3.019-.39038-6.0625-.72559Z"/>
      <path d="M272.69336,234.417q3.02637.2146,6.0293.48584l.26953-2.98828q-3.03223-.27319-6.08594-.48975Z"/>
      <path d="M297.17969,234.09375l-.44531,2.9668q3,.44971,5.97363.95557l.502-2.958Q300.207,234.54834,297.17969,234.09375Z"/>
      <path d="M467.04,332.2666c-1.13086-1.68848-2.30859-3.38184-3.498-5.03125l-2.43359,1.75586c1.16992,1.62109,2.32715,3.28516,3.43945,4.94531Z"/>
      <path d="M405.4873,273.52148c-1.7041-1.08252-3.45312-2.16455-5.20117-3.21484l-1.54492,2.57129c1.72559,1.0376,3.4541,2.106,5.13672,3.17578Z"/>
      <path d="M415.63672,280.34424c-1.64453-1.16895-3.33789-2.33887-5.03125-3.47705l-1.67383,2.49023c1.67285,1.12354,3.34375,2.27832,4.9668,3.43213Z"/>
      <path d="M434.7832,295.56689c-1.50781-1.34326-3.06445-2.68994-4.62793-4.00342l-1.92969,2.29688c1.541,1.29492,3.07617,2.623,4.56348,3.94678Z"/>
      <path d="M395.00781,267.2207c-1.7627-1.00146-3.56348-1.99561-5.35156-2.95557l-1.418,2.64355c1.7666.94824,3.5459,1.93115,5.28906,2.92041Z"/>
      <path d="M425.41895,287.69287c-1.57129-1.249-3.2002-2.50732-4.8418-3.73975l-1.80078,2.39844c1.61914,1.21631,3.22559,2.45752,4.77539,3.68994Z"/>
      <path d="M384.2373,261.438c-1.81445-.91846-3.66016-1.82617-5.48437-2.69824l-1.293,2.707c1.80371.86182,3.62793,1.75928,5.42188,2.668Z"/>
      <path d="M361.9541,251.40723c-1.88379-.74756-3.80273-1.48486-5.7041-2.19189l-1.04492,2.8125c1.88086.69873,3.7793,1.42822,5.6416,2.16748Z"/>
      <path d="M373.21,256.16846c-1.85547-.8335-3.73926-1.65576-5.60254-2.44336l-1.168,2.7627c1.8418.7793,3.70605,1.59277,5.54,2.417Z"/>
      <path d="M481.2334,365.92383l2.80078-1.07422c-.72852-1.89941-1.50684-3.81348-2.3125-5.68945l-2.75586,1.18359C479.75586,362.18359,480.51855,364.06152,481.2334,365.92383Z"/>
      <path d="M485.08789,377.31641l2.87891-.8457c-.57324-1.94922-1.19531-3.917-1.84863-5.84863l-2.8418.96289C483.917,373.47754,484.52734,375.40625,485.08789,377.31641Z"/>
      <path d="M350.501,247.14844q-2.87842-.99829-5.79395-1.94141l-.92187,2.85449q2.88428.93237,5.73145,1.9209Z"/>
      <path d="M488.001,388.97461l2.9375-.60547c-.40918-1.98828-.86816-4-1.36328-5.98145l-2.91016.72656C487.14941,385.05566,487.59863,387.02734,488.001,388.97461Z"/>
      <path d="M473.499,342.68359c-1.00879-1.76562-2.06445-3.53711-3.13672-5.2666l-2.54883,1.582c1.05273,1.69824,2.08984,3.43848,3.08008,5.17285Z"/>
      <path d="M459.875,322.33008c-1.22754-1.58887-2.51465-3.19824-3.82617-4.78418l-2.3125,1.91211c1.291,1.56055,2.55762,3.14355,3.76563,4.70605Z"/>
      <path d="M452.06934,312.8916c-1.33008-1.50781-2.71777-3.03027-4.123-4.52734l-2.1875,2.05469c1.38477,1.47363,2.751,2.97363,4.06055,4.457Z"/>
      <path d="M479.18848,353.56055c-.875-1.83887-1.7998-3.68945-2.74707-5.5l-2.6582,1.39063c.93066,1.77734,1.83789,3.59375,2.69629,5.39844Z"/>
      <path d="M443.68555,303.96777c-1.41895-1.42187-2.89551-2.85693-4.38965-4.26611l-2.05859,2.18164c1.47168,1.38916,2.92676,2.80322,4.3252,4.20361Z"/>
      <path d="M327.10254,240.124q-2.95166-.7522-5.93359-1.44824l-.68164,2.92188q2.95313.68848,5.875,1.43359Z"/>
      <path d="M338.874,243.38965q-2.9165-.87451-5.86914-1.69336l-.80078,2.89063q2.9209.81079,5.80859,1.67676Z"/>
      <path d="M489.543,397.84668l2.9707-.42187q-.21387-1.5-.45605-2.99219l-2.96094.48242Q489.334,396.37549,489.543,397.84668Z"/>
    </g>
    <path d="M469.9754,415.12012c-.51886-43.3822-23.4964-84.03229-64.86212-114.60742C380.54388,282.3526,351.2,269.02722,319.192,261.17877l-5.93359-21.16193c.44055.09131.88617.17358,1.32556.26685l.623-2.93457c-.948-.20111-1.90558-.38336-2.858-.57562L252.5,23.32483V5.53125h-3V24.04651L181.73077,260.958c-32.36584,7.81763-62.03876,21.22058-86.84357,39.55469C53.521,331.08783,30.54346,371.73792,30.0246,415.12012H7v3H30.0246c.51886,43.38324,23.49634,84.03326,64.86261,114.6084,41.36218,30.57172,96.25415,47.44342,154.61279,47.53943v26.20081h3V580.24994c57.61169-.47412,111.72437-17.2995,152.61328-47.52142,41.36578-30.57513,64.34326-71.22516,64.86212-114.6084H493v-3ZM179.16895,269.91376l-3.51166,12.27631-7.77338-9.0589Q173.448,271.40823,179.16895,269.91376Zm-14.39087,4.20483,9.89087,11.52661-2.99652,10.47534-16.1391-18.8089Q160.09567,275.63715,164.77808,274.11859Zm-12.23755,4.31122L170.68427,299.575l-2.84369,9.941-23.749-27.67737Q148.25827,280.06689,152.54053,278.42981Zm-11.33038,4.65674,25.64233,29.88391-3.58679,12.53876-32.27924-37.619Q135.99823,285.38458,141.21014,283.08655Zm-12.97607,6.202,34.04346,39.67511-3.46783,12.12311-40.01056-46.629Q123.415,291.77975,128.23407,289.28857Zm-12.06128,6.71454,41.64874,48.53815-3.642,12.73175-47.03668-55.54358Q111.54639,298.7753,116.17279,296.00311Zm-11.52374,7.423,48.53784,57.31708-3.4527,12.07025L96.71051,309.2254Q100.57761,306.25131,104.649,303.42615ZM94.34723,311.075l54.38922,65.2265-3.57092,12.48328L86.13446,317.99152Q90.10272,314.44394,94.34723,311.075Zm-10.43341,8.93811,60.254,72.2597L140.81946,403.978,76.70081,327.08411Q80.17322,323.4718,83.91382,320.01306Zm-9.2865,9.269,65.1944,78.184-1.58832,5.55249-.1543.54v.56055c0,.33466.01172.66724.017,1.001h-6.01929l.08484-.06934L68.15686,336.706Q71.25226,332.92322,74.62732,329.2821Zm-8.38922,9.81744,62.106,76.02057H115.96375l.10217-.08594L59.7157,348.053Q62.77887,343.48889,66.2381,339.09955Zm-8.23969,11.57288,54.21887,64.44769H100.04l.105-.08887L52.9447,359.244Q55.30273,354.89355,57.99841,350.67242Zm-6.56018,11.43518,44.85266,53.01251H83.02551l.11267-.09668L46.67755,372.53778Q48.811,367.24191,51.43823,362.10761ZM45.44653,375.709l33.82208,39.41107H67.54l.12646-.11133-25.522-29.00488Q43.5658,380.79337,45.44653,375.709ZM41.24207,389.5199l22.52606,25.60022H51.526l.62537-.52246L39.33276,399.2478Q40.0791,394.33609,41.24207,389.5199Zm-2.44812,13.764,9.8844,11.83624H38.02594A115.51266,115.51266,0,0,1,38.79395,403.28387Zm-.768,14.83624H138.20959a65.99954,65.99954,0,0,0,8.068,27.45709L52.489,473.17535A119.68562,119.68562,0,0,1,38.02594,418.12012Zm15.94574,57.74695L147.803,448.25641a87.13177,87.13177,0,0,0,20.69653,23.21051L94.92322,522.62946C77.71375,509.06763,63.75751,493.25653,53.97168,475.86707Zm43.43359,48.69049L170.988,473.3905a113.40371,113.40371,0,0,0,19.12634,11.4657l-53.61993,63.17133A213.90024,213.90024,0,0,1,97.40527,524.55756ZM249.5,572.26782c-40.3429-.06891-78.0708-8.45563-110.17346-22.941L192.94525,486.157A140.55652,140.55652,0,0,0,249.5,497.882Zm0-82.38574c-55.234-.1911-100.418-31.957-103.272-71.762H249.5Zm0-142.84387c-.85736.00262-1.71631-.015-2.56934.00085l.05469,3c.83582-.01575,1.67517.00183,2.51465-.00085v36.08093h-.28076v29.001h-103.125c-.00269-.15-.01074-.299-.01221-.44922l6.64941-23.2453.50635.34686c1.08057-1.57715,2.26416-3.14941,3.51709-4.6748l-2.25549-1.85266,33.61267-117.50464A282.66042,282.66042,0,0,1,249.5,260.9729Zm0-94.06543a293.224,293.224,0,0,0-58.87762,5.99207L249.5,53.13763ZM460.74811,399.76563l-12.3858,14.832.62537.52246H436.74506l22.12421-25.143Q460.01239,394.823,460.74811,399.76563Zm-2.77136-13.31592-25.13007,28.55908.12646.11133h-11.7276L454.707,376.12921Q456.57745,381.22238,457.97675,386.44971Zm-4.48846-13.50714L417.375,415.02344l.11273.09668H404.22327l44.53107-52.63239Q451.36221,367.63336,453.48828,372.94257Zm-6.23364-13.3277-46.88647,55.41638.1051.08887H388.2959l53.92633-64.1Q444.9104,355.24982,447.25464,359.61487Zm-6.743-11.221-56.06342,66.64032.10211.08594H372.17011l61.84424-75.70081Q437.45261,343.82043,440.51166,348.39386Zm-8.41125-11.37518-63.74884,78.0321.0849.06934h-6.53253c.00525-.33374.017-.66632.017-1.001v-.5498L360.331,407.899l65.31311-78.32581Q429.011,333.224,432.1004,337.01868Zm-8.52551-9.64972L359.34778,404.3924l-3.2984-11.76349,60.328-72.34851Q420.1088,323.74695,423.57489,327.369Zm-9.41443-9.11566-59.0943,70.869-3.5177-12.54584,54.41443-65.25732Q410.19656,314.69675,414.16046,318.2533Zm-10.55762-8.78882-53.0376,63.60535-3.4021-12.13336,48.51227-57.28693Q399.74374,306.47907,403.60284,309.46448Zm-10.416-7.51776-47.00159,55.50208-3.588-12.79639,41.572-48.44879Q388.78818,298.983,393.18683,301.94672Zm-11.64105-7.29279-39.92218,46.526-3.41589-12.18256L372.12445,289.47Q376.935,291.968,381.54578,294.65393Zm-12.17108-6.58649-32.14062,37.4574L333.701,312.92419l25.46417-29.67584Q364.36884,285.55292,369.37469,288.06744Zm-13.08862-6.071-23.55878,27.45526-2.801-9.98969,17.92346-20.88843Q352.12732,280.2146,356.28607,281.99646Zm-11.42676-4.54492-15.90668,18.538-2.95142-10.52612,9.624-11.21564Q340.30249,275.77014,344.85931,277.45154Zm-12.33765-4.19495-7.49426,8.73364-3.32269-11.85016Q327.18506,271.59064,332.52167,273.25659ZM252.5,52.95392l57.81952,206.21271A292.61112,292.61112,0,0,0,252.5,252.99078Zm0,297.08331c.13837.00214.27783-.00269.416-.00012l.05469-3c-.15668-.00281-.31384.0025-.4707.00012V260.99158a282.17175,282.17175,0,0,1,60.27808,6.94354l32.9303,117.44568c-.07184-.08789-.13806-.179-.21033-.26654l-2.31445,1.9082c1.25488,1.52246,2.44043,3.09277,3.52344,4.66895l.64624-.44409,6.5647,23.41284c-.00146.15381-.0097.3064-.01245.46H280.78027v-29.001H252.5Zm0,39.08191h25.28027v25.56152H252.5Zm0,29.001H353.77173C350.95038,457.44287,306.82,488.92371,252.5,489.86365Zm0,154.129V497.863c58.78064-.96936,106.5296-36.02271,109.29041-79.74286H461.97406C460.87964,502.64575,367.56726,571.2663,252.5,572.24915Zm199.33527-157.129L461.265,403.828c.41522,3.72943.65991,7.49377.70911,11.29211Z"/>
  </g>
</svg>
